# xmcd CD database file
#
# Track frame offsets:
#	150
#	9963
#	29417
#	46837
#	58701
#	73619
#	90588
#	113672
#	123238
#	138695
#	149616
#	159153
#	176222
#	189364
#
# Disc length: 2771 seconds
#
# Revision: 2
# Processed by: cddbd v1.5.2PL0 Copyright (c) Steve Scherf et al.
# Submitted via: CDex 1.70beta2
#
DISCID=bc0ad10e
DTITLE=unknown artist - The Very Best Of Australia CD 2
DYEAR=2006
DGENRE=Country
TTITLE0=On The Road To Gundagai
TTITLE1=I Am Australian
TTITLE2=Tenterfield Saddler
TTITLE3=Home Among The Gum Trees
TTITLE4=Advance Australia Fair
TTITLE5=Click Go The Shears
TTITLE6=Waltzing Matilda
TTITLE7=Skippy
TTITLE8=I Still Call Australia Home
TTITLE9=Tie Me Kangaroo Down, Sport
TTITLE10=Bound For South Australia
TTITLE11=True Blue
TTITLE12=Waltzing Matilda (Alternate Version)
TTITLE13=The Wild Colonial Boy
EXTD=YEAR: 2006
EXTT0=
EXTT1=
EXTT2=
EXTT3=
EXTT4=
EXTT5=
EXTT6=
EXTT7=
EXTT8=
EXTT9=
EXTT10=
EXTT11=
EXTT12=
EXTT13=
PLAYORDER=
